<?xml version="1.0" encoding="UTF-8"?>
<svg id="Layer_2" data-name="Layer 2" xmlns="http://www.w3.org/2000/svg" viewBox="0 0 500 499.5">
  <defs>
    <style>
      .cls-1 {
        fill: #3ccf4e;
      }
    </style>
  </defs>
  <g id="Layer_1-2" data-name="Layer 1">
    <g>
      <path class="cls-1" d="M5.01,199.5C1.73,215.65,0,232.37,0,249.5H500c0-17.12-1.73-33.84-5.01-50H5.01Z"/>
      <path class="cls-1" d="M5.01,299.5c23.16,114.11,124.04,200,244.99,200s221.82-85.89,244.99-200H5.01Z"/>
      <g>
        <path class="cls-1" d="M214.64,19.44L234.08,0c-5.1,.33-10.16,.8-15.18,1.44h-.15c-10.65,1.3-21.05,3.3-31.25,5.95h-.05c-10.7,2.75-21.1,6.2-31.2,10.3C66.55,54,2.65,140.95,.15,243.05c-.05,1.1-.1,2.15-.05,3.25-.05,1.05-.1,2.1-.1,3.2H62.5c0-21.4,2.7-42.2,7.75-62.05,5.35-20.85,13.3-40.65,23.5-59,15.85-28.6,37.15-53.8,62.5-74.1,17.66-14.18,37.27-25.94,58.4-34.91h0Z"/>
        <path class="cls-1" d="M499.95,247.45c0-.45,0-.9-.05-1.35,0-.05,.05-.1,.05-.15s-.05-.1-.05-.15v-.05h.05v-.05l-.05-.05c0-.85,0-1.7-.05-2.6-.05-2.55-.15-5.15-.3-7.7-.05-.55-.05-1.15-.1-1.75v-.15c-.05-.2-.05-.4-.05-.6-.2-2.9-.45-5.75-.7-8.6v-.05c-.05-.15-.05-.3-.05-.45-.3-3-.65-6-1.1-9-.2-1.5-.45-3.05-.65-4.55v-.05c-.05-.15-.05-.3-.05-.4-.25-1.4-.5-2.75-.75-4.1v-.1c-.55-3.05-1.15-6.1-1.8-9.1-.5-2.4-1.05-4.8-1.65-7.2-.2-.75-.35-1.45-.55-2.2-.05-.25-.15-.55-.2-.8,0-.1-.05-.15-.05-.2-.05,0-.05-.05-.05-.05v-.15c-.05-.15-.1-.25-.15-.4,0-.1,0-.15-.05-.25-.25-.95-.5-1.85-.75-2.8-.05-.15-.1-.35-.15-.5-.05-.15-.1-.35-.1-.5q-.05-.05-.05-.1c-.15-.6-.3-1.2-.5-1.75-.1-.3-.2-.65-.3-.95-.45-1.45-.85-2.95-1.3-4.4-.45-1.45-.95-2.9-1.45-4.35v-.05c-.1-.3-.2-.6-.3-.9-.2-.5-.35-.95-.5-1.45-.1-.25-.15-.45-.25-.65,0-.05-.05-.15-.05-.2-.4-1.1-.8-2.15-1.2-3.25-.25-.8-.55-1.6-.85-2.35-.1-.3-.2-.6-.35-.9-.05-.2-.15-.4-.25-.6-.05-.1-.05-.2-.1-.25-.25-.75-.55-1.45-.85-2.15-.2-.5-.4-1.05-.6-1.55v-.05c-.1-.15-.15-.35-.2-.5-.15-.4-.35-.8-.5-1.2-.3-.75-.6-1.5-.95-2.25-.15-.4-.35-.8-.5-1.15-.85-1.95-1.7-3.9-2.6-5.8-1.25-2.75-2.6-5.45-3.95-8.15-1.15-2.25-2.35-4.5-3.55-6.75-.75-1.4-1.55-2.85-2.4-4.25-.7-1.3-1.45-2.6-2.25-3.9-.15-.25-.3-.55-.5-.85-.55-.95-1.15-1.9-1.75-2.8-.25-.4-.5-.85-.75-1.25-.3-.45-.55-.85-.8-1.3-.3-.45-.55-.9-.85-1.35-.55-.75-1.05-1.55-1.6-2.35-1.3-2-2.65-4-4.05-5.95-.85-1.25-1.7-2.45-2.6-3.65-.9-1.2-1.8-2.4-2.7-3.55-1.15-1.55-2.35-3.1-3.6-4.65-.3-.35-.55-.7-.85-1.05-.5-.65-1.05-1.3-1.6-2-.05-.05-.1-.15-.2-.25-.55-.7-1.15-1.35-1.75-2.05,0-.05-.05-.1-.1-.1-1.1-1.3-2.2-2.6-3.3-3.9-.7-.75-1.35-1.5-1.95-2.2-.25-.25-.45-.5-.7-.75-1.1-1.2-2.2-2.35-3.25-3.5-1-1.1-2.05-2.15-3.1-3.2-1.05-1.1-2.1-2.15-3.15-3.2-2.1-2.1-4.25-4.15-6.45-6.15-1.2-1.05-2.35-2.15-3.55-3.2-1.05-.95-2.1-1.85-3.15-2.75-2.25-1.9-4.55-3.8-6.85-5.65-.35-.25-.65-.55-1-.8-.9-.75-1.85-1.45-2.75-2.15-1.1-.85-2.2-1.65-3.35-2.5-1.2-.9-2.4-1.8-3.65-2.65-1.2-.85-2.4-1.7-3.65-2.55-2.45-1.7-4.95-3.35-7.5-4.95-1.55-1-3.15-2-4.75-2.95-.4-.25-.8-.5-1.2-.7-1-.65-2.05-1.25-3.1-1.8-2.75-1.65-5.55-3.15-8.4-4.65-.65-.35-1.3-.7-2-1.05-.65-.35-1.3-.7-2-1-1.05-.55-2.1-1.1-3.2-1.6-.25-.15-.5-.25-.8-.4-2-1-4-1.9-6.05-2.8-.15-.05-.25-.1-.35-.15-.3-.15-.6-.3-.9-.4-.65-.3-1.3-.6-1.95-.85-1.75-.8-3.5-1.55-5.3-2.25-10.1-4.1-20.55-7.55-31.25-10.3h-.05l-.2-.05-31-5.9c-5.07-.64-10.18-1.12-15.34-1.45l19.44,19.44h0c21.12,9.01,40.74,20.77,58.4,34.96,25.4,20.3,46.65,45.45,62.5,74.05,10.2,18.35,18.2,38.2,23.45,59.05,5.1,19.85,7.8,40.6,7.8,62h62.5c0-.7,0-1.4-.05-2.05Z"/>
      </g>
    </g>
  </g>
</svg>